PathFileType	4	(X/Y/Z)	E:\3-PhD\Data\MocapData\ElaboratedData\009\pre\dynamicElaborations\Run_baseline2\Run_baseline2.trc
DataRate	CameraRate	NumFrames	NumMarkers	Units	OrigDataRate	DataStartFrame
200	200	4	54	mm	200	739
Frame#	Time	FHD			LBHD			RBHD			C7			T10			CLAV			LSHO			LUUPA			LMUPA			LDUPA			LLEP			LMEP			LRAD			LUL			LRFIN			RSHO			RUPA1			RMUPA			RDUPA			RLEP			RMEP			RRAD			RUL			RUFIN			RASI			USACR			LSACR			RSACR			LTHI1			LTHI2			LTHI3			LTHI4			LTIB1			LTIB2			LTIB3			LTIB4			LLMAL			LHEE			LMT1			LMT2			RTHI			RTHI2			RTHI3			RTHI4			RLFC			RTIB1			RTIB2			RTIB3			RTIB4			RLMAL			RHEE			RMT1			RMT2			RMT5		
		X1	Y1	Z1	X2	Y2	Z2	X3	Y3	Z3	X4	Y4	Z4	X5	Y5	Z5	X6	Y6	Z6	X7	Y7	Z7	X8	Y8	Z8	X9	Y9	Z9	X10	Y10	Z10	X11	Y11	Z11	X12	Y12	Z12	X13	Y13	Z13	X14	Y14	Z14	X15	Y15	Z15	X16	Y16	Z16	X17	Y17	Z17	X18	Y18	Z18	X19	Y19	Z19	X20	Y20	Z20	X21	Y21	Z21	X22	Y22	Z22	X23	Y23	Z23	X24	Y24	Z24	X25	Y25	Z25	X26	Y26	Z26	X27	Y27	Z27	X28	Y28	Z28	X29	Y29	Z29	X30	Y30	Z30	X31	Y31	Z31	X32	Y32	Z32	X33	Y33	Z33	X34	Y34	Z34	X35	Y35	Z35	X36	Y36	Z36	X37	Y37	Z37	X38	Y38	Z38	X39	Y39	Z39	X40	Y40	Z40	X41	Y41	Z41	X42	Y42	Z42	X43	Y43	Z43	X44	Y44	Z44	X45	Y45	Z45	X46	Y46	Z46	X47	Y47	Z47	X48	Y48	Z48	X49	Y49	Z49	X50	Y50	Z50	X51	Y51	Z51	X52	Y52	Z52	X53	Y53	Z53	X54	Y54	Z54	

760	3.795000	-203.275965	1414.431712	33.377782	-402.864172	1395.309585	54.117549	-304.288876	1394.931061	133.608204	-430.521072	1287.082334	73.819545	-671.111502	1030.262211	74.635993	-359.792199	1135.814909	58.014060	-377.564269	1181.400756	-85.677267	-538.605892	1085.409287	-177.857221	-541.366791	1042.376544	-154.490138	-593.006125	1042.209051	-185.567683	-703.424050	990.393241	-193.520131	-734.423995	1017.268461	-131.370309	-767.545127	753.140745	-92.599602	-827.606381	762.919926	-135.010841	-777.665586	675.467127	-103.296125	-352.161870	1197.906971	229.799177	-398.265837	1065.909004	338.372432	-372.571452	1027.899931	330.559650	-409.510624	1008.157461	374.609176	-413.327267	872.401991	410.050554	-462.443368	849.325157	361.499274	-218.448464	832.169437	243.461576	-209.934867	776.225893	283.439918	-139.779127	837.277326	248.206701	-542.423498	865.405677	224.854063	-721.037150	933.617242	95.919820	-731.787155	895.823513	79.407534	-725.063932	913.058160	134.876150	-537.611169	614.805100	-78.253913	-459.808555	601.555546	-111.925573	-436.799258	644.112145	-117.211117	-422.331729	553.489036	-103.461196	-262.608083	380.818922	-3.576699	-344.391692	351.699526	8.113939	-301.556504	343.747300	16.247484	-296.639158	303.437028	90.381051	-378.927503	211.709486	194.698981	-424.222439	225.004067	287.031393	-225.089645	159.557138	212.103668	-249.364130	145.546575	173.380965	-550.271219	668.819961	375.419764	-506.657228	623.367637	391.485921	-474.399669	622.427370	381.525814	-526.526490	540.757363	409.389192	-494.174759	437.731390	436.975440	-560.346188	234.799662	480.159216	-652.802017	225.687694	539.952646	-620.028496	194.553040	526.793162	-646.092554	144.327404	512.463851	-739.352052	114.495774	580.132646	-822.797542	68.351072	555.346957	-598.214812	55.943705	522.357078	-596.527336	56.577350	564.119305	-634.469954	35.919466	622.699684	
761	3.800000	-181.371417	1416.611678	21.900389	-380.758420	1397.371553	44.826971	-281.202545	1396.624124	123.083371	-407.853789	1288.096309	65.107606	-646.921569	1030.358972	69.310158	-336.422742	1137.619751	46.878871	-358.265746	1184.236029	-96.411610	-522.360175	1090.646519	-186.032075	-524.469790	1046.802079	-164.203026	-577.058878	1047.890133	-193.676922	-687.439370	995.784214	-199.690055	-717.016953	1021.258915	-136.465011	-742.268969	756.081543	-99.613929	-803.985451	764.582341	-139.973090	-750.307164	678.380701	-111.034863	-326.033152	1199.633793	218.441562	-368.027180	1065.176254	325.192284	-342.694718	1027.430257	315.559728	-377.659609	1006.605559	360.365709	-380.581734	869.949890	392.581685	-430.903557	847.648532	344.407179	-190.649822	842.486337	217.727060	-178.681195	785.755569	255.268982	-112.133249	850.658631	219.469559	-517.707944	865.268885	219.793161	-696.703503	934.332498	91.318024	-707.690736	896.548321	75.093445	-700.364493	914.009671	130.454644	-516.983195	615.275977	-83.606767	-439.562994	602.391394	-118.296217	-417.106280	645.166906	-124.139753	-401.443244	554.798089	-109.791093	-232.106206	383.117695	-13.518235	-312.044174	350.064786	0.662749	-268.316285	343.749955	7.601683	-258.986634	303.582233	81.063693	-333.898421	207.370707	187.302369	-376.677533	218.268059	281.010480	-177.443723	161.900022	199.393613	-202.285784	146.955672	161.352066	-533.193988	668.241005	372.096347	-491.457427	621.337857	388.903999	-459.150705	619.297808	379.417189	-514.564846	539.743054	407.375301	-486.317091	435.689060	436.143838	-556.458841	234.006149	479.941927	-649.217611	226.898522	539.572070	-616.976442	195.027632	526.656860	-643.920506	145.293648	512.479584	-737.924935	117.265468	580.069764	-822.075904	72.634758	555.261602	-597.869885	55.770791	522.627628	-596.148294	56.385782	564.360741	-634.718746	36.286630	623.160006	
762	3.805000	-159.497122	1419.151838	10.219728	-358.658957	1399.892258	35.147373	-258.242623	1398.755803	112.278197	-385.200026	1289.465506	56.113776	-622.503769	1030.701774	63.938840	-313.121554	1139.932254	35.387241	-339.045138	1187.591634	-107.362655	-506.123128	1096.338515	-194.267150	-507.603088	1051.674995	-174.149700	-561.139530	1054.060944	-201.885673	-671.340137	1001.495136	-205.906395	-699.401741	1025.415124	-141.555966	-716.538441	759.333407	-107.459503	-779.878193	766.517427	-145.588658	-722.524231	681.643696	-119.860684	-300.000788	1201.821595	206.583650	-337.929128	1065.127197	311.592290	-312.992673	1027.675458	300.115501	-345.911439	1005.810905	345.718086	-348.205264	868.450186	374.862083	-399.861254	846.872949	327.203869	-164.175586	853.467448	192.231941	-148.858682	796.163322	227.200655	-86.038070	864.711410	190.969434	-492.252428	864.990770	213.759254	-672.073945	935.297720	86.710785	-683.380610	897.527019	70.796741	-675.288002	915.204263	126.030871	-496.338542	615.797203	-89.031408	-419.318658	602.988999	-124.629053	-397.337214	645.919215	-131.084235	-380.690602	555.798595	-115.955679	-201.870560	385.285045	-23.529202	-279.699694	348.364087	-7.053461	-235.212308	343.727916	-1.264569	-221.599380	303.867387	71.358157	-288.909720	203.448413	179.163730	-329.115075	212.040787	274.116768	-130.250329	164.754897	186.023819	-155.561982	148.852303	148.662790	-515.963368	668.070561	368.335183	-476.231681	619.712861	385.788882	-443.946569	616.561329	376.757501	-502.682983	539.351290	404.896580	-478.813030	434.404638	434.761520	-552.659423	233.890568	479.396171	-645.530736	228.698073	539.024998	-613.814689	196.153159	526.362318	-641.590487	146.887379	512.425059	-736.152660	120.474561	580.002630	-821.087610	77.612367	555.357916	-597.505954	55.583695	522.899320	-595.681784	56.183265	564.563554	-634.909669	36.835212	623.712267	
763	3.810000	-137.646597	1421.997728	-1.671685	-336.567207	1402.834125	25.049212	-235.419992	1401.311674	101.190890	-362.567471	1291.166095	46.854390	-597.855588	1031.259510	58.514490	-289.907558	1142.677954	23.584047	-319.885408	1191.397152	-118.483869	-489.808920	1102.393976	-202.516217	-490.696466	1056.935303	-184.234740	-545.154849	1060.614732	-210.115941	-655.082508	1007.441438	-212.099921	-681.515095	1029.666680	-146.578233	-690.428282	762.865888	-116.109460	-755.346550	768.723968	-151.807214	-694.463782	685.240119	-129.750745	-274.073007	1204.422058	194.244462	-308.058272	1065.727725	297.648812	-283.526844	1028.609908	284.342590	-314.401073	1005.727406	330.721708	-316.236887	867.841394	356.983583	-369.320494	846.919810	309.965216	-138.984255	864.919475	167.154379	-120.454151	807.225822	199.410429	-61.434649	879.186272	162.889084	-466.157515	864.644910	206.881167	-647.148111	936.480179	82.072462	-658.841002	898.729308	66.479066	-649.846063	916.595753	121.566236	-475.639140	616.370142	-94.552718	-399.026494	603.363954	-130.945564	-377.433686	646.383761	-138.053258	-360.025334	556.495870	-121.988934	-171.934701	387.305207	-33.610814	-247.420474	346.627049	-15.052364	-202.380517	343.736142	-10.423376	-184.570329	304.286960	61.265176	-244.120074	199.950163	170.286522	-281.717598	206.357577	266.345929	-83.661752	168.033510	172.072148	-109.337092	151.154582	135.385663	-498.501671	668.334293	364.107213	-460.903200	618.527073	382.110136	-428.720005	614.243980	373.491744	-490.789459	539.630551	401.923243	-471.563925	433.943735	432.799309	-548.861515	234.521881	478.505229	-641.657831	231.143969	538.297257	-610.456593	197.985222	525.886860	-639.015710	149.153792	512.278529	-733.947289	124.164344	579.906958	-819.739210	83.349672	555.628187	-597.110028	55.365539	523.165058	-595.113514	55.966713	564.731670	-634.986195	37.576505	624.328566	
